  <svg width="512" height="512" viewBox="0 0 512 512" fill="none" xmlns="http://www.w3.org/2000/svg">
  <defs>
   
    <radialGradient id="bg-glow" cx="50%" cy="50%" r="50%" fx="50%" fy="50%">
      <stop offset="0%" stop-color="#1E1D2A" />
      <stop offset="100%" stop-color="#121118" />
    </radialGradient>


    <filter id="glow" x="-20%" y="-20%" width="140%" height="140%">
      <feGaussianBlur stdDeviation="8" result="blur" />
      <feComposite in="SourceGraphic" in2="blur" operator="over" />
    </filter>


    <linearGradient id="vector-left" x1="117.4" y1="176" x2="256" y2="256" gradientUnits="userSpaceOnUse">
      <stop offset="0%" stop-color="#8B5CF6" stop-opacity="0.8"/>
      <stop offset="100%" stop-color="#6366F1" />
    </linearGradient>
    
    <linearGradient id="vector-right" x1="394.6" y1="176" x2="256" y2="256" gradientUnits="userSpaceOnUse">
      <stop offset="0%" stop-color="#EC4899" stop-opacity="0.8"/>
      <stop offset="100%" stop-color="#F43F5E" />
    </linearGradient>

    <linearGradient id="vector-bottom" x1="256" y1="416" x2="256" y2="256" gradientUnits="userSpaceOnUse">
      <stop offset="0%" stop-color="#10B981" stop-opacity="0.8"/>
      <stop offset="100%" stop-color="#06B6D4" />
    </linearGradient>

    <linearGradient id="wireframe-grad" x1="256" y1="96" x2="256" y2="416" gradientUnits="userSpaceOnUse">
      <stop offset="0%" stop-color="#F1EFEA" stop-opacity="0.3" />
      <stop offset="50%" stop-color="#F1EFEA" stop-opacity="0.6" />
      <stop offset="100%" stop-color="#F1EFEA" stop-opacity="0.1" />
    </linearGradient>
  </defs>

  
  <rect width="512" height="512" rx="128" fill="url(#bg-glow)" stroke="#1E1D2A" stroke-width="4" />


  <circle cx="256" cy="256" r="210" stroke="#F1EFEA" stroke-opacity="0.08" stroke-width="1.5" stroke-dasharray="4 6" />

  
  <line x1="56" y1="256" x2="456" y2="256" stroke="#F1EFEA" stroke-opacity="0.05" stroke-width="1" />
  <line x1="256" y1="56" x2="256" y2="456" stroke="#F1EFEA" stroke-opacity="0.05" stroke-width="1" />

  
  <text x="70" y="246" fill="#F1EFEA" fill-opacity="0.25" font-family="monospace" font-size="10" letter-spacing="1">[-1.0]</text>
  <text x="406" y="246" fill="#F1EFEA" fill-opacity="0.25" font-family="monospace" font-size="10" letter-spacing="1">[+1.0]</text>
  <text x="266" y="76" fill="#F1EFEA" fill-opacity="0.25" font-family="monospace" font-size="10" letter-spacing="1">[0,0]</text>

  
  <path d="M256,96 L394.6,176 L394.6,336 L256,416 L117.4,336 L117.4,176 Z" stroke="url(#wireframe-grad)" stroke-width="2" stroke-linejoin="round" />

  
  <path d="M256,136 L360,196 L360,316 L256,376 L152,316 L152,196 Z" stroke="#F1EFEA" stroke-opacity="0.15" stroke-width="1" stroke-linejoin="round" stroke-dasharray="2 3" />


  <line x1="256" y1="96" x2="256" y2="256" stroke="url(#wireframe-grad)" stroke-width="1.5" />
  <line x1="117.4" y1="336" x2="256" y2="256" stroke="url(#wireframe-grad)" stroke-width="1.5" />
  <line x1="394.6" y1="336" x2="256" y2="256" stroke="url(#wireframe-grad)" stroke-width="1.5" />

  <path d="M117.4,176 L256,256" stroke="url(#vector-left)" stroke-width="4.5" stroke-linecap="round" />
  <circle cx="117.4" cy="176" r="4.5" fill="#8B5CF6" />


  <path d="M394.6,176 L256,256" stroke="url(#vector-right)" stroke-width="4.5" stroke-linecap="round" />
  <circle cx="394.6" cy="176" r="4.5" fill="#EC4899" />

 
  <path d="M256,416 L256,256" stroke="url(#vector-bottom)" stroke-width="4.5" stroke-linecap="round" />
  <circle cx="256" cy="416" r="4.5" fill="#10B981" />

 
  <circle cx="256" cy="256" r="32" fill="#6366F1" fill-opacity="0.12" filter="url(#glow)" />
  <circle cx="256" cy="256" r="22" stroke="#6366F1" stroke-opacity="0.4" stroke-width="1.5" stroke-dasharray="2 2" />


  <circle cx="256" cy="256" r="12" fill="#121118" stroke="#F1EFEA" stroke-width="2.5" />
  <circle cx="256" cy="256" r="5" fill="#6366F1" />

  <path d="M216,233 L256,256 M296,233 L256,256 M256,306 L256,256" stroke="#F1EFEA" stroke-opacity="0.4" stroke-width="1.25" stroke-linecap="round" />
</svg>
